<svg width="25" height="25" viewBox="0 0 25 25" fill="none" xmlns="http://www.w3.org/2000/svg">
<mask id="mask0_484_342" style="mask-type:alpha" maskUnits="userSpaceOnUse" x="0" y="0" width="25" height="25">
<rect x="0.701569" y="0.241211" width="24" height="24" fill="#D9D9D9"/>
</mask>
<g mask="url(#mask0_484_342)">
<path d="M4.70157 20.2412C4.15157 20.2412 3.68074 20.0454 3.28907 19.6537C2.8974 19.262 2.70157 18.7912 2.70157 18.2412V6.24121C2.70157 5.69121 2.8974 5.22038 3.28907 4.82871C3.68074 4.43704 4.15157 4.24121 4.70157 4.24121H20.7016C21.2516 4.24121 21.7224 4.43704 22.1141 4.82871C22.5057 5.22038 22.7016 5.69121 22.7016 6.24121V12.2412H4.70157V18.2412H14.7016V20.2412H4.70157ZM4.70157 8.24121H20.7016V6.24121H4.70157V8.24121ZM19.7016 22.2412V19.2412H16.7016V17.2412H19.7016V14.2412H21.7016V17.2412H24.7016V19.2412H21.7016V22.2412H19.7016Z" fill="#576BEA"/>
</g>
</svg>
