<svg width="20" height="20" viewBox="0 0 20 20" fill="none" xmlns="http://www.w3.org/2000/svg">
<path d="M13.4201 1.30794C15.0206 2.49623 17.2566 5.77271 17.4815 10.832C17.5048 11.356 17.25 11.852 16.7742 12.0729C16.4344 12.2307 15.9753 12.4097 15.3969 12.5622C15.1863 12.6177 15.0455 12.8197 15.0763 13.0352L15.5868 16.6091C15.7287 17.6022 15.3397 18.492 14.3725 18.7581C13.4678 19.007 12.4999 18.4063 12.4999 17.468V1.87755C12.4999 1.34279 12.9907 0.989156 13.4201 1.30794Z" stroke="#576BEA" stroke-width="1.5" stroke-linecap="round" stroke-linejoin="round"/>
<path d="M9.14347 2.23261C9.33526 3.3651 9.60347 5.34358 9.58193 7.45654C9.5708 8.54696 8.84251 9.52421 7.69738 9.78087C7.46105 9.83387 7.20876 9.8815 6.94534 9.91875L7.71363 16.5772C7.83051 17.5902 7.20284 18.584 6.1923 18.7209C6.05718 18.7392 5.93413 18.7501 5.83297 18.7501C5.73176 18.7501 5.60872 18.7392 5.47359 18.7209C4.46305 18.584 3.83537 17.5902 3.95226 16.5772L4.72055 9.91871C4.45718 9.8815 4.20493 9.83383 3.96862 9.78087C2.82344 9.52421 2.09509 8.54687 2.08398 7.45642C2.06246 5.34371 2.3302 3.36548 2.52172 2.23296C2.61933 1.65575 3.12405 1.25 3.70946 1.25H7.95584C8.54109 1.25 9.04576 1.65556 9.14347 2.23261Z" stroke="#576BEA" stroke-width="1.5" stroke-linecap="round" stroke-linejoin="round"/>
<path d="M4.79159 1.25L4.58325 5.83333" stroke="#576BEA" stroke-width="1.5" stroke-linecap="round" stroke-linejoin="round"/>
<path d="M6.87488 1.25L7.08321 5.83333" stroke="#576BEA" stroke-width="1.5" stroke-linecap="round" stroke-linejoin="round"/>
</svg>
