<svg width="24" height="25" viewBox="0 0 24 25" fill="none" xmlns="http://www.w3.org/2000/svg">
<mask id="mask0_471_447" style="mask-type:alpha" maskUnits="userSpaceOnUse" x="0" y="0" width="24" height="25">
<rect y="0.5" width="24" height="24" fill="#D9D9D9"/>
</mask>
<g mask="url(#mask0_471_447)">
<path d="M20.1 17.45C20.3833 17.6 20.6333 17.5667 20.85 17.35C21.0667 17.1333 21.1 16.8833 20.95 16.6L19.5 13.9L18.45 16.6L20.1 17.45ZM15.1 16.5H16.3L18.7 10.55C18.75 10.4167 18.7375 10.3042 18.6625 10.2125C18.5875 10.1208 18.5 10.05 18.4 10L16.4 9.2C16.25 9.15 16.1042 9.16667 15.9625 9.25C15.8208 9.33333 15.7333 9.45 15.7 9.6L15.1 16.5ZM7.7 16.5H8.9L8.3 9.6C8.26667 9.41667 8.17917 9.29167 8.0375 9.225C7.89583 9.15833 7.75 9.15 7.6 9.2L5.6 10C5.46667 10.05 5.37083 10.1208 5.3125 10.2125C5.25417 10.3042 5.25 10.4167 5.3 10.55L7.7 16.5ZM3.9 17.45L5.55 16.6L4.5 13.9L3.05 16.6C2.9 16.8833 2.93333 17.1333 3.15 17.35C3.36667 17.5667 3.61667 17.6 3.9 17.45ZM10.9 16.5H13.1L13.85 8.05C13.8833 7.9 13.8458 7.77083 13.7375 7.6625C13.6292 7.55417 13.5 7.5 13.35 7.5H10.65C10.5167 7.5 10.3958 7.55417 10.2875 7.6625C10.1792 7.77083 10.1333 7.9 10.15 8.05L10.9 16.5ZM3.45 19.5C2.75 19.5 2.16667 19.2375 1.7 18.7125C1.23333 18.1875 1 17.5667 1 16.85C1 16.65 1.02917 16.4542 1.0875 16.2625C1.14583 16.0708 1.21667 15.8833 1.3 15.7L3.5 11.5C3.26667 10.8333 3.275 10.175 3.525 9.525C3.775 8.875 4.21667 8.41667 4.85 8.15L6.85 7.35C7.08333 7.26667 7.31667 7.20833 7.55 7.175C7.78333 7.14167 8.01667 7.15 8.25 7.2C8.48333 6.71667 8.80833 6.3125 9.225 5.9875C9.64167 5.6625 10.1167 5.5 10.65 5.5H13.35C13.8833 5.5 14.3583 5.6625 14.775 5.9875C15.1917 6.3125 15.5167 6.71667 15.75 7.2C15.9833 7.16667 16.2167 7.1625 16.45 7.1875C16.6833 7.2125 16.9167 7.26667 17.15 7.35L19.15 8.15C19.8167 8.41667 20.2833 8.875 20.55 9.525C20.8167 10.175 20.8 10.8167 20.5 11.45L22.7 15.65C22.8 15.8333 22.875 16.025 22.925 16.225C22.975 16.425 23 16.6333 23 16.85C23 17.6 22.7458 18.2292 22.2375 18.7375C21.7292 19.2458 21.1 19.5 20.35 19.5C20.1667 19.5 19.9833 19.4792 19.8 19.4375C19.6167 19.3958 19.4333 19.3333 19.25 19.25L17.7 18.5H6.25L4.85 19.25C4.63333 19.3667 4.40417 19.4375 4.1625 19.4625C3.92083 19.4875 3.68333 19.5 3.45 19.5Z" fill="#576BEA"/>
</g>
</svg>
