<svg width="25" height="25" viewBox="0 0 25 25" fill="none" xmlns="http://www.w3.org/2000/svg">
<mask id="mask0_541_74" style="mask-type:alpha" maskUnits="userSpaceOnUse" x="0" y="0" width="25" height="25">
<rect x="0.0386963" y="0.33429" width="24" height="24" fill="#D9D9D9"/>
</mask>
<g mask="url(#mask0_541_74)">
<path d="M6.03875 11.2843L5.03875 11.8343C4.80542 11.9676 4.55542 12.001 4.28875 11.9343C4.02209 11.8676 3.82209 11.7176 3.68875 11.4843L1.68875 7.98429C1.55542 7.75096 1.52209 7.50096 1.58875 7.23429C1.65542 6.96762 1.80542 6.76762 2.03875 6.63429L7.78875 3.33429H9.53875C9.68875 3.33429 9.80959 3.38012 9.90125 3.47179C9.99292 3.56346 10.0388 3.68429 10.0388 3.83429V4.33429C10.0388 4.88429 10.2346 5.35512 10.6263 5.74679C11.0179 6.13846 11.4888 6.33429 12.0388 6.33429C12.5888 6.33429 13.0596 6.13846 13.4513 5.74679C13.8429 5.35512 14.0388 4.88429 14.0388 4.33429V3.83429C14.0388 3.68429 14.0846 3.56346 14.1763 3.47179C14.2679 3.38012 14.3888 3.33429 14.5388 3.33429H16.2888L22.0388 6.63429C22.2721 6.76762 22.4221 6.96762 22.4888 7.23429C22.5554 7.50096 22.5221 7.75096 22.3888 7.98429L20.3888 11.4843C20.2554 11.7176 20.0596 11.8635 19.8013 11.9218C19.5429 11.9801 19.2888 11.9426 19.0388 11.8093L18.0388 11.3093V20.3343C18.0388 20.6176 17.9429 20.8551 17.7513 21.0468C17.5596 21.2385 17.3221 21.3343 17.0388 21.3343H7.03875C6.75542 21.3343 6.51792 21.2385 6.32625 21.0468C6.13459 20.8551 6.03875 20.6176 6.03875 20.3343V11.2843ZM8.03875 7.93429V19.3343H16.0388V7.93429L19.1388 9.63429L20.1888 7.88429L15.8888 5.38429C15.6388 6.23429 15.1679 6.93846 14.4763 7.49679C13.7846 8.05512 12.9721 8.33429 12.0388 8.33429C11.1054 8.33429 10.2929 8.05512 9.60125 7.49679C8.90959 6.93846 8.43875 6.23429 8.18875 5.38429L3.88875 7.88429L4.93875 9.63429L8.03875 7.93429Z" fill="#576BEA"/>
</g>
</svg>
