<svg width="24" height="25" viewBox="0 0 24 25" fill="none" xmlns="http://www.w3.org/2000/svg">
<mask id="mask0_494_74" style="mask-type:alpha" maskUnits="userSpaceOnUse" x="0" y="0" width="25" height="25">
<rect x="0.0083313" y="0.64502" width="24" height="24" fill="#D9D9D9"/>
</mask>
<g mask="url(#mask0_494_74)">
<path d="M9.75833 23.645C8.90833 23.645 8.15416 23.3909 7.49583 22.8825C6.8375 22.3742 6.39166 21.72 6.15833 20.92C6.05833 20.5367 5.85 20.2284 5.53333 19.995C5.21666 19.7617 4.85833 19.645 4.45833 19.645C4.19166 19.645 3.94166 19.6992 3.70833 19.8075C3.475 19.9159 3.275 20.07 3.10833 20.27L1.58333 18.995C1.93333 18.5617 2.3625 18.2284 2.87083 17.995C3.37916 17.7617 3.90833 17.645 4.45833 17.645C5.30833 17.645 6.06666 17.895 6.73333 18.395C7.4 18.895 7.85 19.5534 8.08333 20.37C8.18333 20.7534 8.39166 21.0617 8.70833 21.295C9.025 21.5284 9.375 21.645 9.75833 21.645C10.075 21.645 10.3583 21.5617 10.6083 21.395C10.8583 21.2284 11.075 21.02 11.2583 20.77L11.2833 20.72L4.38333 11.195C4.25 11.0117 4.15416 10.82 4.09583 10.62C4.0375 10.42 4.00833 10.22 4.00833 10.02C4.00833 9.75335 4.05833 9.49919 4.15833 9.25752C4.25833 9.01585 4.40833 8.79502 4.60833 8.59502L11.1083 2.22002C11.2917 2.03669 11.5083 1.89502 11.7583 1.79502C12.0083 1.69502 12.2583 1.64502 12.5083 1.64502C12.7583 1.64502 13.0083 1.69502 13.2583 1.79502C13.5083 1.89502 13.725 2.03669 13.9083 2.22002L20.4083 8.59502C20.6083 8.79502 20.7583 9.01585 20.8583 9.25752C20.9583 9.49919 21.0083 9.75335 21.0083 10.02C21.0083 10.22 20.9792 10.42 20.9208 10.62C20.8625 10.82 20.7667 11.0117 20.6333 11.195L12.5083 22.445C12.2083 22.8617 11.8083 23.1659 11.3083 23.3575C10.8083 23.5492 10.2917 23.645 9.75833 23.645ZM12.5083 19.02L19.0083 10.02L12.5083 3.64502L6.03333 10.045L12.5083 19.02Z" fill="#576BEA"/>
</g>
</svg>
