<svg width="24" height="25" viewBox="0 0 24 25" fill="none" xmlns="http://www.w3.org/2000/svg">
<mask id="mask0_471_522" style="mask-type:alpha" maskUnits="userSpaceOnUse" x="0" y="0" width="24" height="25">
<rect y="0.5" width="24" height="24" fill="#D9D9D9"/>
</mask>
<g mask="url(#mask0_471_522)">
<path d="M6 19.5C5.16667 19.5 4.45833 19.2083 3.875 18.625C3.29167 18.0417 3 17.3333 3 16.5H1V7.5C1 6.95 1.19583 6.47917 1.5875 6.0875C1.97917 5.69583 2.45 5.5 3 5.5H17L23 11.5V16.5H21C21 17.3333 20.7083 18.0417 20.125 18.625C19.5417 19.2083 18.8333 19.5 18 19.5C17.1667 19.5 16.4583 19.2083 15.875 18.625C15.2917 18.0417 15 17.3333 15 16.5H9C9 17.3333 8.70833 18.0417 8.125 18.625C7.54167 19.2083 6.83333 19.5 6 19.5ZM15 10.5H19L16 7.5H15V10.5ZM9 10.5H13V7.5H9V10.5ZM3 10.5H7V7.5H3V10.5ZM6 17.75C6.35 17.75 6.64583 17.6292 6.8875 17.3875C7.12917 17.1458 7.25 16.85 7.25 16.5C7.25 16.15 7.12917 15.8542 6.8875 15.6125C6.64583 15.3708 6.35 15.25 6 15.25C5.65 15.25 5.35417 15.3708 5.1125 15.6125C4.87083 15.8542 4.75 16.15 4.75 16.5C4.75 16.85 4.87083 17.1458 5.1125 17.3875C5.35417 17.6292 5.65 17.75 6 17.75ZM18 17.75C18.35 17.75 18.6458 17.6292 18.8875 17.3875C19.1292 17.1458 19.25 16.85 19.25 16.5C19.25 16.15 19.1292 15.8542 18.8875 15.6125C18.6458 15.3708 18.35 15.25 18 15.25C17.65 15.25 17.3542 15.3708 17.1125 15.6125C16.8708 15.8542 16.75 16.15 16.75 16.5C16.75 16.85 16.8708 17.1458 17.1125 17.3875C17.3542 17.6292 17.65 17.75 18 17.75ZM3 14.5H3.8C4.08333 14.2 4.40833 13.9583 4.775 13.775C5.14167 13.5917 5.55 13.5 6 13.5C6.45 13.5 6.85833 13.5917 7.225 13.775C7.59167 13.9583 7.91667 14.2 8.2 14.5H15.8C16.0833 14.2 16.4083 13.9583 16.775 13.775C17.1417 13.5917 17.55 13.5 18 13.5C18.45 13.5 18.8583 13.5917 19.225 13.775C19.5917 13.9583 19.9167 14.2 20.2 14.5H21V12.5H3V14.5Z" fill="#576BEA"/>
</g>
</svg>
