<svg width="100" height="100" viewBox="0 0 100 100" fill="none" xmlns="http://www.w3.org/2000/svg">
<rect width="100" height="100" rx="50" fill="#576BEA"/>
<g filter="url(#filter0_d_562_75)">
<path d="M29 71.2V28H35.51L50.45 58.6L65.39 28H71.9V71.2H65.15V43.51L51.89 71.2H49.01L35.78 43.51V71.2H29Z" fill="white"/>
<path d="M28.5 71.2V71.7H29H35.78H36.28V71.2V45.7163L48.5589 71.4156L48.6948 71.7H49.01H51.89H52.2049L52.341 71.416L64.65 45.7118V71.2V71.7H65.15H71.9H72.4V71.2V28V27.5H71.9H65.39H65.0777L64.9407 27.7806L50.45 57.4604L35.9593 27.7806L35.8223 27.5H35.51H29H28.5V28V71.2Z" stroke="#576BEA"/>
</g>
<defs>
<filter id="filter0_d_562_75" x="24" y="27" width="52.9" height="53.2" filterUnits="userSpaceOnUse" color-interpolation-filters="sRGB">
<feFlood flood-opacity="0" result="BackgroundImageFix"/>
<feColorMatrix in="SourceAlpha" type="matrix" values="0 0 0 0 0 0 0 0 0 0 0 0 0 0 0 0 0 0 127 0" result="hardAlpha"/>
<feOffset dy="4"/>
<feGaussianBlur stdDeviation="2"/>
<feComposite in2="hardAlpha" operator="out"/>
<feColorMatrix type="matrix" values="0 0 0 0 0 0 0 0 0 0 0 0 0 0 0 0 0 0 0.25 0"/>
<feBlend mode="normal" in2="BackgroundImageFix" result="effect1_dropShadow_562_75"/>
<feBlend mode="normal" in="SourceGraphic" in2="effect1_dropShadow_562_75" result="shape"/>
</filter>
</defs>
</svg>
